<svg xmlns="http://www.w3.org/2000/svg"  width="16" height="16" viewBox="0 0 24 24" fill="none">
<path d="M12 0C5.4 0 0 5.4 0 12c0 5.3 3.7 9.8 8.7 10.8.6.1.8-.3.8-.6 0-.3 0-1.2 0-2.2-3.2.6-3.9-1.4-3.9-1.4-.5-1.2-1.1-1.5-1.1-1.5-1-.7.1-.7.1-.7 1.1.1 1.7 1.1 1.7 1.1 1 1.8 2.5 1.3 3.1 1 .1-.7.4-1.3.7-1.6-2.5-.3-5.1-1.3-5.1-5.7 0-1.3.5-2.3 1.2-3.2-.1-.3-.5-1.5.1-3.2 0 0 1-.3 3.3 1.2 1-.3 2-.5 3-.5s2 .2 3 .5c2.2-1.5 3.2-1.2 3.2-1.2.6 1.7.2 3 .1 3.2.7 1.1 1.2 2 1.2 3.2 0 4.4-2.6 5.4-5.1 5.7.4.4.8 1.1.8 2.2 0 1.6 0 2.9 0 3.3 0 .3.2.7.8.6 5-1 8.6-5.5 8.6-10.8C24 5.4 18.6 0 12 0z" fill="white"/>
</svg>
